<svg xmlns="http://www.w3.org/2000/svg" width="128" height="128" viewBox="0 0 128 128"><g fill="#ffffff" transform="translate(10.000 98.364) scale(0.153409 -0.153409)"><path d="M256 320V384H192H128V320V256H192H256V192H320V128V64H256V0H192H128H64V64H128H192H256V128V192H192H128V256H64V320V384H128V448H192H256H320V384V320ZM64 64H0V128H64Z M576 64H640V0H576H512H448H384V64H448V128V192H512V128V64ZM640 64V128V192H704V128V64ZM640 192H576H512V256V320V384H448V448H512H576H640V384H704V320V256H640V320V384H576V320V256H640Z"/></g></svg>