<svg xmlns="http://www.w3.org/2000/svg" width="128" height="128" viewBox="0 0 128 128">
    <g transform="translate(15.342879256965944 93.79876160990712) scale(0.08513931888544891 -0.08513931888544891)" fill="#ffffff">
        <path d="M364 8Q312 2 259.5 -1.0Q207 -4 162.0 0.0Q117 4 86.0 18.5Q55 33 46 63Q40 117 37.5 183.5Q35 250 35.0 321.5Q35 393 38.0 463.0Q41 533 47 593Q48 602 53.5 615.0Q59 628 73.5 638.5Q88 649 117 649H331Q397 640 451.0 602.5Q505 565 525 514Q541 478 535.0 440.0Q529 402 506.5 371.5Q484 341 453 326Q476 314 496.0 288.5Q516 263 528.0 232.5Q540 202 539 174Q535 51 364 8ZM195 416Q227 413 259.5 414.5Q292 416 324 422Q346 430 359.5 442.0Q373 454 375 474Q372 494 355.5 508.0Q339 522 305 528Q290 530 260.5 530.5Q231 531 199 531ZM195 133Q244 132 285.5 136.0Q327 140 351 153Q390 178 377 210Q367 235 342.0 245.5Q317 256 290 258L191 256Q189 194 195 133Z" />
        <path d="M123 5Q96 6 80.0 17.0Q64 28 56.0 42.0Q48 56 45.5 66.0Q43 76 43 76Q39 116 37.0 178.0Q35 240 35.0 312.0Q35 384 37.5 456.0Q40 528 45 589Q45 589 47.5 602.0Q50 615 64.0 629.5Q78 644 112 649Q235 659 323.0 648.0Q411 637 460 590Q508 543 524.0 486.0Q540 429 524.0 373.0Q508 317 461 274Q421 237 353 218Q376 205 403.5 188.0Q431 171 472 142Q472 142 479.5 134.5Q487 127 493.5 113.5Q500 100 499.0 83.0Q498 66 482 47Q471 33 455.5 30.5Q440 28 425.0 31.0Q410 34 400.0 38.0Q390 42 390 42Q341 71 294.0 97.0Q247 123 188 156L191 62Q191 62 189.0 53.0Q187 44 180.5 32.5Q174 21 160.0 12.5Q146 4 123 5ZM187 349Q251 345 288.5 357.0Q326 369 343.0 391.5Q360 414 362 440Q362 480 338.5 500.5Q315 521 276.5 527.0Q238 533 192 530Q188 485 187.0 439.0Q186 393 187 349Z" transform="translate(575 0)" />
    </g>
</svg>